<?xml version="1.0" encoding="UTF-8"?>
<svg xmlns="http://www.w3.org/2000/svg"
  xmlns:xlink="http://www.w3.org/1999/xlink" width="37px" height="37px" viewBox="0 0 37 37" version="1.1">
  <defs>
    <filter id="alpha" filterUnits="objectBoundingBox" x="0%" y="0%" width="100%" height="100%">
      <feColorMatrix type="matrix" in="SourceGraphic" values="0 0 0 0 1 0 0 0 0 1 0 0 0 0 1 0 0 0 1 0"/>
    </filter>
    <mask id="mask0">
      <g filter="url(#alpha)">
        <rect x="0" y="0" width="37" height="37" style="fill:rgb(0%,0%,0%);fill-opacity:0.992157;stroke:none;"/>
      </g>
    </mask>
    <clipPath id="clip1">
      <rect x="0" y="0" width="37" height="37"/>
    </clipPath>
    <g id="surface5" clip-path="url(#clip1)">
      <path style=" stroke:none;fill-rule:evenodd;fill:rgb(64.313725%,14.117647%,13.72549%);fill-opacity:1;" d="M 16.796875 -0.0429688 C 18.019531 -0.0429688 19.242188 -0.0429688 20.464844 -0.0429688 C 25.96875 0.695312 30.375 3.28125 33.683594 7.722656 C 33.839844 7.945312 33.96875 8.175781 34.078125 8.421875 C 34.070312 8.554688 34.128906 8.640625 34.25 8.683594 C 35.6875 10.957031 36.589844 13.429688 36.957031 16.101562 C 36.957031 17.671875 36.957031 19.242188 36.957031 20.8125 C 36.105469 26.429688 33.34375 30.835938 28.667969 34.03125 C 27.019531 35.089844 25.246094 35.859375 23.34375 36.34375 C 23.105469 36.316406 22.902344 36.375 22.730469 36.519531 C 22.035156 36.703125 21.335938 36.847656 20.636719 36.957031 C 19.183594 36.957031 17.730469 36.957031 16.273438 36.957031 C 15.226562 36.78125 14.179688 36.546875 13.132812 36.257812 C 13.035156 36.109375 12.890625 36.050781 12.695312 36.082031 C 7.453125 34.285156 3.683594 30.855469 1.394531 25.785156 C 0.683594 24.003906 0.203125 22.171875 -0.0429688 20.289062 C -0.0429688 19.066406 -0.0429688 17.84375 -0.0429688 16.625 C 0.121094 15.484375 0.351562 14.351562 0.65625 13.21875 C 0.804688 13.121094 0.863281 12.976562 0.828125 12.785156 C 2.742188 7.160156 6.46875 3.246094 12 1.046875 C 12.789062 0.730469 13.601562 0.511719 14.441406 0.394531 C 14.730469 0.398438 14.992188 0.339844 15.226562 0.21875 C 15.382812 0.132812 15.554688 0.105469 15.75 0.132812 C 16.128906 0.167969 16.476562 0.109375 16.796875 -0.0429688 Z M 16.796875 -0.0429688 "/>
    </g>
    <mask id="mask1">
      <g filter="url(#alpha)">
        <rect x="0" y="0" width="37" height="37" style="fill:rgb(0%,0%,0%);fill-opacity:0.145098;stroke:none;"/>
      </g>
    </mask>
    <clipPath id="clip2">
      <rect x="0" y="0" width="37" height="37"/>
    </clipPath>
    <g id="surface8" clip-path="url(#clip2)">
      <path style=" stroke:none;fill-rule:evenodd;fill:rgb(25.098039%,6.666667%,5.098039%);fill-opacity:1;" d="M 16.449219 -0.0429688 C 16.566406 -0.0429688 16.683594 -0.0429688 16.796875 -0.0429688 C 16.476562 0.109375 16.128906 0.167969 15.75 0.132812 C 15.984375 0.0742188 16.214844 0.015625 16.449219 -0.0429688 Z M 16.449219 -0.0429688 "/>
    </g>
    <mask id="mask2">
      <g filter="url(#alpha)">
        <rect x="0" y="0" width="37" height="37" style="fill:rgb(0%,0%,0%);fill-opacity:0.403922;stroke:none;"/>
      </g>
    </mask>
    <clipPath id="clip3">
      <rect x="0" y="0" width="37" height="37"/>
    </clipPath>
    <g id="surface11" clip-path="url(#clip3)">
      <path style=" stroke:none;fill-rule:evenodd;fill:rgb(37.647059%,8.235294%,8.627451%);fill-opacity:1;" d="M 15.226562 0.21875 C 14.992188 0.339844 14.730469 0.398438 14.441406 0.394531 C 14.679688 0.269531 14.941406 0.210938 15.226562 0.21875 Z M 15.226562 0.21875 "/>
    </g>
    <mask id="mask3">
      <g filter="url(#alpha)">
        <rect x="0" y="0" width="37" height="37" style="fill:rgb(0%,0%,0%);fill-opacity:0.133333;stroke:none;"/>
      </g>
    </mask>
    <clipPath id="clip4">
      <rect x="0" y="0" width="37" height="37"/>
    </clipPath>
    <g id="surface14" clip-path="url(#clip4)">
      <path style=" stroke:none;fill-rule:evenodd;fill:rgb(23.921569%,6.27451%,5.490196%);fill-opacity:1;" d="M 34.078125 8.421875 C 34.199219 8.460938 34.257812 8.550781 34.25 8.683594 C 34.128906 8.640625 34.070312 8.554688 34.078125 8.421875 Z M 34.078125 8.421875 "/>
    </g>
    <mask id="mask4">
      <g filter="url(#alpha)">
        <rect x="0" y="0" width="37" height="37" style="fill:rgb(0%,0%,0%);fill-opacity:0.482353;stroke:none;"/>
      </g>
    </mask>
    <clipPath id="clip5">
      <rect x="0" y="0" width="37" height="37"/>
    </clipPath>
    <g id="surface17" clip-path="url(#clip5)">
      <path style=" stroke:none;fill-rule:evenodd;fill:rgb(27.45098%,7.843137%,7.058824%);fill-opacity:1;" d="M 0.828125 12.785156 C 0.863281 12.976562 0.804688 13.121094 0.65625 13.21875 C 0.679688 13.054688 0.738281 12.910156 0.828125 12.785156 Z M 0.828125 12.785156 "/>
    </g>
    <mask id="mask5">
      <g filter="url(#alpha)">
        <rect x="0" y="0" width="37" height="37" style="fill:rgb(0%,0%,0%);fill-opacity:0.45098;stroke:none;"/>
      </g>
    </mask>
    <clipPath id="clip6">
      <rect x="0" y="0" width="37" height="37"/>
    </clipPath>
    <g id="surface20" clip-path="url(#clip6)">
      <path style=" stroke:none;fill-rule:evenodd;fill:rgb(25.882353%,7.45098%,6.27451%);fill-opacity:1;" d="M 12.695312 36.082031 C 12.890625 36.050781 13.035156 36.109375 13.132812 36.257812 C 12.96875 36.234375 12.820312 36.175781 12.695312 36.082031 Z M 12.695312 36.082031 "/>
    </g>
    <mask id="mask6">
      <g filter="url(#alpha)">
        <rect x="0" y="0" width="37" height="37" style="fill:rgb(0%,0%,0%);fill-opacity:0.47451;stroke:none;"/>
      </g>
    </mask>
    <clipPath id="clip7">
      <rect x="0" y="0" width="37" height="37"/>
    </clipPath>
    <g id="surface23" clip-path="url(#clip7)">
      <path style=" stroke:none;fill-rule:evenodd;fill:rgb(36.862745%,9.019608%,8.235294%);fill-opacity:1;" d="M 23.34375 36.34375 C 23.160156 36.441406 22.957031 36.5 22.730469 36.519531 C 22.902344 36.375 23.105469 36.316406 23.34375 36.34375 Z M 23.34375 36.34375 "/>
    </g>
  </defs>
  <g id="surface1">
    <use xlink:href="#surface5" mask="url(#mask0)"/>
    <use xlink:href="#surface8" mask="url(#mask1)"/>
    <use xlink:href="#surface11" mask="url(#mask2)"/>
    <path style=" stroke:none;fill-rule:evenodd;fill:rgb(52.941176%,53.72549%,54.509804%);fill-opacity:1;" d="M 16.625 1.089844 C 23.90625 0.625 29.535156 3.417969 33.507812 9.46875 C 35.820312 13.511719 36.492188 17.816406 35.515625 22.382812 C 34.445312 26.957031 31.957031 30.550781 28.054688 33.160156 C 23.5 35.898438 18.640625 36.597656 13.480469 35.253906 C 9.328125 33.921875 6.054688 31.433594 3.664062 27.792969 C 1.207031 23.636719 0.480469 19.183594 1.484375 14.441406 C 2.3125 11.050781 3.988281 8.15625 6.5 5.757812 C 9.363281 3.101562 12.738281 1.546875 16.625 1.089844 Z M 16.625 1.089844 "/>
    <path style=" stroke:none;fill-rule:evenodd;fill:rgb(67.058824%,15.686275%,14.901961%);fill-opacity:1;" d="M 16.796875 2.398438 C 23.539062 2.027344 28.734375 4.644531 32.375 10.253906 C 35.183594 15.382812 35.328125 20.589844 32.8125 25.875 C 29.222656 32.070312 23.828125 34.933594 16.625 34.46875 C 11.136719 33.640625 7.019531 30.835938 4.277344 26.046875 C 1.25 19.695312 1.859375 13.730469 6.109375 8.160156 C 8.929688 4.878906 12.496094 2.957031 16.796875 2.398438 Z M 16.796875 2.398438 "/>
    <path style=" stroke:none;fill-rule:evenodd;fill:rgb(99.215686%,98.823529%,98.823529%);fill-opacity:1;" d="M 16.449219 3.535156 C 22.796875 2.964844 27.753906 5.289062 31.328125 10.515625 C 33.402344 14.050781 34.015625 17.832031 33.160156 21.859375 C 31.644531 27.535156 28.082031 31.246094 22.46875 32.984375 C 15.371094 34.519531 9.773438 32.324219 5.671875 26.398438 C 3.632812 22.824219 3.023438 19.015625 3.839844 14.964844 C 4.855469 10.988281 7.078125 7.890625 10.515625 5.671875 C 12.347656 4.535156 14.324219 3.820312 16.449219 3.535156 Z M 16.449219 3.535156 "/>
    <path style=" stroke:none;fill-rule:evenodd;fill:rgb(52.941176%,54.509804%,55.294118%);fill-opacity:1;" d="M 16.363281 7.285156 C 16.363281 8.332031 16.363281 9.382812 16.363281 10.429688 C 14.105469 10.398438 11.867188 10.429688 9.644531 10.515625 C 9.644531 11.707031 9.644531 12.902344 9.644531 14.09375 C 11.941406 14.09375 14.238281 14.09375 16.535156 14.09375 C 16.59375 20.230469 16.652344 26.367188 16.710938 32.507812 C 12.222656 31.796875 8.773438 29.527344 6.371094 25.699219 C 4.261719 21.917969 3.855469 17.964844 5.148438 13.832031 C 6.9375 9.25 10.179688 6.238281 14.878906 4.800781 C 15.363281 4.652344 15.855469 4.582031 16.363281 4.582031 C 16.363281 5.484375 16.363281 6.386719 16.363281 7.285156 Z M 16.363281 7.285156 "/>
    <path style=" stroke:none;fill-rule:evenodd;fill:rgb(52.941176%,54.509804%,55.294118%);fill-opacity:1;" d="M 20.988281 4.582031 C 26.988281 5.914062 30.785156 9.550781 32.375 15.488281 C 33.308594 20.984375 31.722656 25.59375 27.617188 29.320312 C 25.460938 31.097656 22.988281 32.160156 20.203125 32.507812 C 20.304688 26.367188 20.390625 20.230469 20.464844 14.09375 C 22.730469 14.09375 25 14.09375 27.269531 14.09375 C 27.269531 12.902344 27.269531 11.707031 27.269531 10.515625 C 25.03125 10.515625 22.789062 10.515625 20.550781 10.515625 C 20.550781 9.410156 20.550781 8.304688 20.550781 7.199219 C 20.636719 6.34375 20.667969 5.46875 20.636719 4.582031 C 20.753906 4.582031 20.871094 4.582031 20.988281 4.582031 Z M 20.988281 4.582031 "/>
    <path style=" stroke:none;fill-rule:evenodd;fill:rgb(69.019608%,70.196078%,70.588235%);fill-opacity:1;" d="M 20.988281 4.582031 C 20.871094 4.582031 20.753906 4.582031 20.636719 4.582031 C 20.667969 5.46875 20.636719 6.34375 20.550781 7.199219 C 20.550781 6.296875 20.550781 5.394531 20.550781 4.492188 C 20.71875 4.46875 20.863281 4.5 20.988281 4.582031 Z M 20.988281 4.582031 "/>
    <use xlink:href="#surface14" mask="url(#mask3)"/>
    <path style=" stroke:none;fill-rule:evenodd;fill:rgb(69.019608%,70.196078%,70.588235%);fill-opacity:1;" d="M 16.363281 7.285156 C 16.449219 8.347656 16.476562 9.421875 16.449219 10.515625 C 14.179688 10.515625 11.910156 10.515625 9.644531 10.515625 C 11.867188 10.429688 14.105469 10.398438 16.363281 10.429688 C 16.363281 9.382812 16.363281 8.332031 16.363281 7.285156 Z M 16.363281 7.285156 "/>
    <use xlink:href="#surface17" mask="url(#mask4)"/>
    <use xlink:href="#surface20" mask="url(#mask5)"/>
    <use xlink:href="#surface23" mask="url(#mask6)"/>
  </g>
</svg>
